<svg xmlns="http://www.w3.org/2000/svg" viewBox="0 0 64 64">
  <defs>
    <linearGradient id="bg" x1="0" y1="0" x2="0" y2="1">
      <stop offset="0" stop-color="#0d1117"/>
      <stop offset="1" stop-color="#1c2128"/>
    </linearGradient>
  </defs>
  <rect width="64" height="64" rx="14" fill="url(#bg)"/>
  <!-- Ears -->
  <circle cx="20" cy="22" r="7" fill="#2dd4bf"/>
  <circle cx="44" cy="22" r="7" fill="#2dd4bf"/>
  <circle cx="20" cy="22" r="3" fill="#0d1117"/>
  <circle cx="44" cy="22" r="3" fill="#0d1117"/>
  <!-- Head -->
  <circle cx="32" cy="34" r="16" fill="#2dd4bf"/>
  <!-- Eyes -->
  <circle cx="26" cy="32" r="2.2" fill="#0d1117"/>
  <circle cx="38" cy="32" r="2.2" fill="#0d1117"/>
  <circle cx="26.7" cy="31.3" r="0.7" fill="#fff"/>
  <circle cx="38.7" cy="31.3" r="0.7" fill="#fff"/>
  <!-- Nose -->
  <ellipse cx="32" cy="38" rx="2.5" ry="1.8" fill="#0d1117"/>
  <!-- Smile -->
  <path d="M 28 41 Q 32 43.5 36 41" stroke="#0d1117" stroke-width="1.5" stroke-linecap="round" fill="none"/>
  <!-- Heart tag -->
  <path d="M 47 42 q -2 -3 -4 -1 q -2 -2 -4 1 q 0 3 4 6 q 4 -3 4 -6 z" fill="#ef4444"/>
</svg>
